<?xml version="1.0" standalone="no"?>
<!DOCTYPE svg >
<svg xmlns="http://www.w3.org/2000/svg" xmlns:xlink="http://www.w3.org/1999/xlink" id="body_1" width="56" height="42">

<g transform="matrix(0.0546875 0 0 0.0546875 0 0)">
    <path transform="matrix(1.5 0 0 1.5 128 0)"  d="M104.923 191.732L407.086 191.732L407.086 496.256L104.923 496.256L104.923 191.732z" stroke="none" fill="#fafdfb" fill-rule="nonzero" />
    <path transform="matrix(1.5 0 0 1.5 128 0)"  d="M180.066 413.377C 171.376 413.377 164.328 406.33 164.328 397.639L164.328 397.639L164.328 296.918C 164.328 288.228 171.375 281.18 180.066 281.18C 188.757 281.18 195.804 288.227 195.804 296.918L195.804 296.918L195.804 397.639C 195.803 406.329 188.756 413.377 180.066 413.377z" stroke="none" fill="#d3ecdb" fill-rule="nonzero" />
    <path transform="matrix(1.5 0 0 1.5 128 0)"  d="M256 413.377C 247.31 413.377 240.262 406.33 240.262 397.639L240.262 397.639L240.262 296.918C 240.262 288.228 247.309 281.18 256 281.18C 264.69 281.18 271.738 288.227 271.738 296.918L271.738 296.918L271.738 397.639C 271.738 406.329 264.69 413.377 256 413.377z" stroke="none" fill="#d3ecdb" fill-rule="nonzero" />
    <path transform="matrix(1.5 0 0 1.5 128 0)"  d="M331.934 413.377C 323.244 413.377 316.196 406.33 316.196 397.639L316.196 397.639L316.196 296.918C 316.196 288.228 323.243 281.18 331.934 281.18C 340.625 281.18 347.672 288.227 347.672 296.918L347.672 296.918L347.672 397.639C 347.672 406.329 340.625 413.377 331.934 413.377z" stroke="none" fill="#d3ecdb" fill-rule="nonzero" />
    <path transform="matrix(1.5 0 0 1.5 128 0)"  d="M395.935 73.706C 387.245 73.706 380.197 80.753 380.197 89.444C 380.197 98.135 387.244 105.182 395.935 105.182C 414.23 105.182 429.115 120.067 429.115 138.362L429.115 138.362L429.115 176.002L407.08 176.002L104.92 176.002L82.886 176.002L82.886 138.362C 82.886 120.067 97.771 105.182 116.066 105.182L116.066 105.182L279.607 105.182C 288.297 105.182 295.345 98.135 295.345 89.444C 295.345 80.753 288.298 73.706 279.607 73.706L279.607 73.706L186.755 73.706L186.755 31.476L325.247 31.476L325.247 89.444C 325.247 98.134 332.294 105.182 340.985 105.182C 349.676 105.182 356.723 98.135 356.723 89.444L356.723 89.444L356.723 15.738C 356.723 7.048 349.676 0 340.985 0L340.985 0L171.017 0C 162.327 0 155.279 7.047 155.279 15.738L155.279 15.738L155.279 73.706L116.065 73.706C 80.41399 73.706 51.40999 102.711 51.40999 138.361L51.40999 138.361L51.40999 191.738C 51.40999 200.428 58.45699 207.476 67.14799 207.476L67.14799 207.476L89.18199 207.476L89.18199 496.262C 89.18199 504.952 96.22899 512 104.92 512L104.92 512L407.08 512C 415.77 512 422.818 504.953 422.818 496.262L422.818 496.262L422.818 207.476L444.852 207.476C 453.542 207.476 460.59 200.429 460.59 191.738L460.59 191.738L460.59 138.361C 460.59 102.71 431.585 73.706 395.935 73.706zM391.342 480.525L120.658 480.525L120.658 207.476L391.343 207.476L391.343 480.525z" stroke="none" fill="#d3ecdb" fill-rule="nonzero" />
</g>
</svg>