<?xml version="1.0" standalone="no"?>
<!DOCTYPE svg >
<svg xmlns="http://www.w3.org/2000/svg" xmlns:xlink="http://www.w3.org/1999/xlink" id="body_1" width="28" height="21">

<g transform="matrix(0.02734375 0 0 0.02734375 0 0)">
    <path transform="matrix(1.526232 0 0 1.526232 128 0)"  d="M479.2 227.6C 465.6 227.6 455.2 238 455.2 251.6C 455.2 363.6 364 454.8 252 454.8C 140 454.8 48.8 363.6 48.8 251.6C 48.8 139.6 140 47.6 252 47.6C 310.4 47.6 365.6 75.6 404 115.6L404 115.6L360.8 115.6C 347.2 115.6 336.8 126 336.8 139.6C 336.8 153.2 347.2 163.6 360.8 163.6L360.8 163.6L484 163.6L484 39.60001C 484 26.00001 473.6 15.60001 460 15.60001C 446.4 15.60001 436 26.00001 436 39.60001L436 39.60001L436 82C 388 30 321.6 0.4 251.2 0.4C 112.8 0.4 0 113.2 0 251.6C 0 390 113.6 502.8 252 502.8C 390.4 502.8 503.2 390 503.2 251.6C 503.2 238 492.8 227.6 479.2 227.6z" stroke="none" fill="#656f8c" fill-rule="nonzero" />
    <path transform="matrix(1.526232 0 0 1.526232 128 0)"  d="M336.8 139.6C 336.8 153.2 347.2 163.6 360.8 163.6L360.8 163.6L485.6 163.6C 451.2 83.60001 370.4 23.60001 275.2 23.60001C 150.4 23.60001 48.79999 125.2 48.79999 250.8C 48.79999 376.4 150.4 478 276 478C 401.6 478 503.2 376.4 503.2 250.8C 503.2 249.2 503.2 246.8 503.2 245.2C 500 234.8 491.2 227.6 480 227.6C 466.4 227.6 456 238 456 251.6C 455.2 363.6 364 454.8 252 454.8C 140 454.8 48.8 363.6 48.8 251.6C 48.8 139.6 140 47.6 252 47.6C 310.4 47.6 365.6 75.6 404 115.6L404 115.6L360.8 115.6C 347.2 115.6 336.8 126 336.8 139.6z" stroke="none" fill="#656f8c" fill-rule="nonzero" />
</g>
</svg>