<?xml version="1.0" standalone="no"?>
<!DOCTYPE svg >
<svg xmlns="http://www.w3.org/2000/svg" xmlns:xlink="http://www.w3.org/1999/xlink" id="body_1" width="28" height="28">

<g transform="matrix(1 0 0 1 0 0)">
    <path transform="matrix(1 0 0 1 0 0)"  d="M11.75 2C 11.3358 2 11 2.33579 11 2.75C 11 3.16421 11.3358 3.5 11.75 3.5L11.75 3.5L13.25 3.5L13.25 24.5L11.75 24.5C 11.3358 24.5 11 24.8358 11 25.25C 11 25.6642 11.3358 26 11.75 26L11.75 26L16.25 26C 16.6642 26 17 25.6642 17 25.25C 17 24.8358 16.6642 24.5 16.25 24.5L16.25 24.5L14.75 24.5L14.75 3.5L16.25 3.5C 16.6642 3.5 17 3.16421 17 2.75C 17 2.33579 16.6642 2 16.25 2L16.25 2L11.75 2z" stroke="none" fill="#656f8c" fill-rule="nonzero" />
    <path transform="matrix(1 0 0 1 0 0)"  d="M6.25 6.01958L12.25 6.01958L12.25 7.51958L6.25 7.51958C 5.2835 7.51958 4.5 8.30308 4.5 9.26958L4.5 9.26958L4.5 18.7696C 4.5 19.7361 5.2835 20.5196 6.25 20.5196L6.25 20.5196L12.25 20.5196L12.25 22.0196L6.25 22.0196C 4.45507 22.0196 3 20.5645 3 18.7696L3 18.7696L3 9.26958C 3 7.47465 4.45507 6.01958 6.25 6.01958z" stroke="none" fill="#656f8c" fill-rule="nonzero" />
    <path transform="matrix(1 0 0 1 0 0)"  d="M21.75 20.5196L15.75 20.5196L15.75 22.0196L21.75 22.0196C 23.5449 22.0196 25 20.5645 25 18.7696L25 18.7696L25 9.26958C 25 7.47465 23.5449 6.01958 21.75 6.01958L21.75 6.01958L15.75 6.01958L15.75 7.51958L21.75 7.51958C 22.7165 7.51958 23.5 8.30308 23.5 9.26958L23.5 9.26958L23.5 18.7696C 23.5 19.7361 22.7165 20.5196 21.75 20.5196z" stroke="none" fill="#656f8c" fill-rule="nonzero" />
</g>
</svg>